<?xml version="1.0" encoding="iso-8859-1"?>
<!DOCTYPE svg PUBLIC "-//W3C//DTD SVG 1.1//EN" "http://www.w3.org/Graphics/SVG/1.1/DTD/svg11.dtd">
<svg 
 version="1.1" xmlns="http://www.w3.org/2000/svg" xmlns:xlink="http://www.w3.org/1999/xlink" x="0px" y="0px" width="512px"
	 height="512px" viewBox="0 0 512 512" style="enable-background:new 0 0 512 512;" xml:space="preserve"
><g id="7935ec95c421cee6d86eb22ecd10b5e2"><g></g><g fill="#ffffff"><path style="display: inline;" d="M341.167,319.875h42.583c0,52.905-57.192,95.813-127.75,95.813
		c-7.261,0-14.364-0.479-21.292-1.352C295.123,406.73,341.167,367.336,341.167,319.875z M511.5,256
		c0,141.107-114.393,255.5-255.5,255.5S0.5,397.107,0.5,256S114.893,0.5,256,0.5S511.5,114.893,511.5,256z M468.917,256
		c0-117.404-95.514-212.917-212.917-212.917C138.596,43.083,43.083,138.596,43.083,256c0,117.403,95.513,212.917,212.917,212.917
		C373.403,468.917,468.917,373.403,468.917,256z M259.311,170.833c0.041,0.216,0.074,0.445,0.112,0.665h-6.85
		c0.038-0.22,0.075-0.449,0.117-0.665H64.375c7.905,43.203,0,106.458,94.157,106.458c59.026,0,77.669-31.077,86.269-64.541h20.526
		c6.305,33.463,22.148,64.541,88.141,64.541c84.219,0,86.252-63.256,94.157-106.458H259.311z"></path></g></g></svg>